<svg width="567" height="76" viewBox="0 0 567 76" fill="none" xmlns="http://www.w3.org/2000/svg">
<path fill-rule="evenodd" clip-rule="evenodd" d="M37.079 0.889893H17.5477C7.85637 0.889893 0 8.74624 0 18.4376V58.4522C0 68.1435 7.85636 75.9999 17.5477 75.9999H549.452C559.144 75.9999 567 68.1435 567 58.4522V18.4376C567 8.74626 559.144 0.889893 549.452 0.889893H236.379V2.29371H549.452C558.368 2.29371 565.596 9.52157 565.596 18.4376V58.4522C565.596 67.3682 558.368 74.5961 549.452 74.5961H17.5477C8.63166 74.5961 1.40381 67.3682 1.40381 58.4522V18.4376C1.40381 9.52155 8.63167 2.29371 17.5477 2.29371H37.079V0.889893Z" fill="black"/>
</svg>
