<svg width="567" height="76" viewBox="0 0 567 76" fill="none" xmlns="http://www.w3.org/2000/svg">
  <path fill-rule="evenodd" clip-rule="evenodd" d="M37.079 0.889893H17.5477C7.85637 0.889893 0 8.74626 0 18.4376V58.4523C0 68.1437 7.85636 76 17.5477 76H549.452C559.144 76 567 68.1437 567 58.4523V18.4376C567 8.74626 559.144 0.889893 549.452 0.889893H236.379V2.29371H549.452C558.368 2.29371 565.596 9.52156 565.596 18.4376V58.4523C565.596 67.3684 558.368 74.5962 549.452 74.5962H17.5477C8.63166 74.5962 1.40381 67.3684 1.40381 58.4523V18.4376C1.40381 9.52157 8.63167 2.29371 17.5477 2.29371H37.079V0.889893Z" fill="black"/>
</svg>
