<svg width="103" height="15" viewBox="0 0 103 15" fill="none" xmlns="http://www.w3.org/2000/svg">
<path d="M2.76 0.099999V8.96C2.76 10.0133 3.03333 10.8067 3.58 11.34C4.14 11.8733 4.91333 12.14 5.9 12.14C6.9 12.14 7.67333 11.8733 8.22 11.34C8.78 10.8067 9.06 10.0133 9.06 8.96V0.099999H11.34V8.92C11.34 10.0533 11.0933 11.0133 10.6 11.8C10.1067 12.5867 9.44667 13.1733 8.62 13.56C7.79333 13.9467 6.88 14.14 5.88 14.14C4.88 14.14 3.96667 13.9467 3.14 13.56C2.32667 13.1733 1.68 12.5867 1.2 11.8C0.72 11.0133 0.48 10.0533 0.48 8.92V0.099999H2.76ZM18.3086 14.18C17.4419 14.18 16.6619 14.0267 15.9686 13.72C15.2886 13.4 14.7486 12.9733 14.3486 12.44C13.9486 11.8933 13.7353 11.2867 13.7086 10.62H16.0686C16.1086 11.0867 16.3286 11.48 16.7286 11.8C17.1419 12.1067 17.6553 12.26 18.2686 12.26C18.9086 12.26 19.4019 12.14 19.7486 11.9C20.1086 11.6467 20.2886 11.3267 20.2886 10.94C20.2886 10.5267 20.0886 10.22 19.6886 10.02C19.3019 9.82 18.6819 9.6 17.8286 9.36C17.0019 9.13333 16.3286 8.91333 15.8086 8.7C15.2886 8.48667 14.8353 8.16 14.4486 7.72C14.0753 7.28 13.8886 6.7 13.8886 5.98C13.8886 5.39333 14.0619 4.86 14.4086 4.38C14.7553 3.88667 15.2486 3.5 15.8886 3.22C16.5419 2.94 17.2886 2.8 18.1286 2.8C19.3819 2.8 20.3886 3.12 21.1486 3.76C21.9219 4.38667 22.3353 5.24667 22.3886 6.34H20.1086C20.0686 5.84667 19.8686 5.45333 19.5086 5.16C19.1486 4.86667 18.6619 4.72 18.0486 4.72C17.4486 4.72 16.9886 4.83333 16.6686 5.06C16.3486 5.28667 16.1886 5.58667 16.1886 5.96C16.1886 6.25333 16.2953 6.5 16.5086 6.7C16.7219 6.9 16.9819 7.06 17.2886 7.18C17.5953 7.28667 18.0486 7.42667 18.6486 7.6C19.4486 7.81333 20.1019 8.03333 20.6086 8.26C21.1286 8.47333 21.5753 8.79333 21.9486 9.22C22.3219 9.64667 22.5153 10.2133 22.5286 10.92C22.5286 11.5467 22.3553 12.1067 22.0086 12.6C21.6619 13.0933 21.1686 13.48 20.5286 13.76C19.9019 14.04 19.1619 14.18 18.3086 14.18ZM35.0922 8.22C35.0922 8.63333 35.0655 9.00667 35.0122 9.34H26.5922C26.6589 10.22 26.9855 10.9267 27.5722 11.46C28.1589 11.9933 28.8789 12.26 29.7322 12.26C30.9589 12.26 31.8255 11.7467 32.3322 10.72H34.7922C34.4589 11.7333 33.8522 12.5667 32.9722 13.22C32.1055 13.86 31.0255 14.18 29.7322 14.18C28.6789 14.18 27.7322 13.9467 26.8922 13.48C26.0655 13 25.4122 12.3333 24.9322 11.48C24.4655 10.6133 24.2322 9.61333 24.2322 8.48C24.2322 7.34667 24.4589 6.35333 24.9122 5.5C25.3789 4.63333 26.0255 3.96667 26.8522 3.5C27.6922 3.03333 28.6522 2.8 29.7322 2.8C30.7722 2.8 31.6989 3.02667 32.5122 3.48C33.3255 3.93333 33.9589 4.57333 34.4122 5.4C34.8655 6.21333 35.0922 7.15333 35.0922 8.22ZM32.7122 7.5C32.6989 6.66 32.3989 5.98667 31.8122 5.48C31.2255 4.97333 30.4989 4.72 29.6322 4.72C28.8455 4.72 28.1722 4.97333 27.6122 5.48C27.0522 5.97333 26.7189 6.64667 26.6122 7.5H32.7122ZM39.6159 4.58C39.9493 4.02 40.3893 3.58667 40.9359 3.28C41.4959 2.96 42.1559 2.8 42.9159 2.8V5.16H42.3359C41.4426 5.16 40.7626 5.38667 40.2959 5.84C39.8426 6.29333 39.6159 7.08 39.6159 8.2V14H37.3359V2.98H39.6159V4.58ZM50.5717 2.8C51.4384 2.8 52.2117 2.98 52.8917 3.34C53.5851 3.7 54.1251 4.23333 54.5117 4.94C54.8984 5.64667 55.0917 6.5 55.0917 7.5V14H52.8317V7.84C52.8317 6.85333 52.5851 6.1 52.0917 5.58C51.5984 5.04667 50.9251 4.78 50.0717 4.78C49.2184 4.78 48.5384 5.04667 48.0317 5.58C47.5384 6.1 47.2917 6.85333 47.2917 7.84V14H45.0117V2.98H47.2917V4.24C47.6651 3.78667 48.1384 3.43333 48.7117 3.18C49.2984 2.92667 49.9184 2.8 50.5717 2.8ZM57.24 8.44C57.24 7.33333 57.4667 6.35333 57.92 5.5C58.3867 4.64667 59.0133 3.98667 59.8 3.52C60.6 3.04 61.48 2.8 62.44 2.8C63.3067 2.8 64.06 2.97333 64.7 3.32C65.3533 3.65333 65.8733 4.07333 66.26 4.58V2.98H68.56V14H66.26V12.36C65.8733 12.88 65.3467 13.3133 64.68 13.66C64.0133 14.0067 63.2533 14.18 62.4 14.18C61.4533 14.18 60.5867 13.94 59.8 13.46C59.0133 12.9667 58.3867 12.2867 57.92 11.42C57.4667 10.54 57.24 9.54667 57.24 8.44ZM66.26 8.48C66.26 7.72 66.1 7.06 65.78 6.5C65.4733 5.94 65.0667 5.51333 64.56 5.22C64.0533 4.92667 63.5067 4.78 62.92 4.78C62.3333 4.78 61.7867 4.92667 61.28 5.22C60.7733 5.5 60.36 5.92 60.04 6.48C59.7333 7.02667 59.58 7.68 59.58 8.44C59.58 9.2 59.7333 9.86667 60.04 10.44C60.36 11.0133 60.7733 11.4533 61.28 11.76C61.8 12.0533 62.3467 12.2 62.92 12.2C63.5067 12.2 64.0533 12.0533 64.56 11.76C65.0667 11.4667 65.4733 11.04 65.78 10.48C66.1 9.90667 66.26 9.24 66.26 8.48ZM84.8947 2.8C85.7614 2.8 86.5347 2.98 87.2147 3.34C87.908 3.7 88.448 4.23333 88.8347 4.94C89.2347 5.64667 89.4347 6.5 89.4347 7.5V14H87.1747V7.84C87.1747 6.85333 86.928 6.1 86.4347 5.58C85.9414 5.04667 85.268 4.78 84.4147 4.78C83.5614 4.78 82.8814 5.04667 82.3747 5.58C81.8814 6.1 81.6347 6.85333 81.6347 7.84V14H79.3747V7.84C79.3747 6.85333 79.128 6.1 78.6347 5.58C78.1414 5.04667 77.468 4.78 76.6147 4.78C75.7614 4.78 75.0814 5.04667 74.5747 5.58C74.0814 6.1 73.8347 6.85333 73.8347 7.84V14H71.5547V2.98H73.8347V4.24C74.208 3.78667 74.6814 3.43333 75.2547 3.18C75.828 2.92667 76.4414 2.8 77.0947 2.8C77.9747 2.8 78.7614 2.98667 79.4547 3.36C80.148 3.73333 80.6814 4.27333 81.0547 4.98C81.388 4.31333 81.908 3.78667 82.6147 3.4C83.3214 3 84.0814 2.8 84.8947 2.8ZM102.436 8.22C102.436 8.63333 102.409 9.00667 102.356 9.34H93.9359C94.0026 10.22 94.3293 10.9267 94.9159 11.46C95.5026 11.9933 96.2226 12.26 97.0759 12.26C98.3026 12.26 99.1693 11.7467 99.6759 10.72H102.136C101.803 11.7333 101.196 12.5667 100.316 13.22C99.4493 13.86 98.3693 14.18 97.0759 14.18C96.0226 14.18 95.0759 13.9467 94.2359 13.48C93.4093 13 92.7559 12.3333 92.2759 11.48C91.8093 10.6133 91.5759 9.61333 91.5759 8.48C91.5759 7.34667 91.8026 6.35333 92.2559 5.5C92.7226 4.63333 93.3693 3.96667 94.1959 3.5C95.0359 3.03333 95.9959 2.8 97.0759 2.8C98.1159 2.8 99.0426 3.02667 99.8559 3.48C100.669 3.93333 101.303 4.57333 101.756 5.4C102.209 6.21333 102.436 7.15333 102.436 8.22ZM100.056 7.5C100.043 6.66 99.7426 5.98667 99.1559 5.48C98.5693 4.97333 97.8426 4.72 96.9759 4.72C96.1893 4.72 95.5159 4.97333 94.9559 5.48C94.3959 5.97333 94.0626 6.64667 93.9559 7.5H100.056Z" fill="black"/>
</svg>
